# xmcd CD database file
#
# Track frame offsets:
#	182
#	13357
#	24742
#	38635
#	53430
#	63752
#	78042
#	93560
#	105922
#	116472
#
# Disc length: 1739 seconds
#
# Revision: 0
# Processed by: cddbd v1.5.2PL0 Copyright (c) Steve Scherf et al.
# Submitted via: CDex 1.70beta2
#
DISCID=6a06c90a
DTITLE=Various Artist - The Elevator Collection
DYEAR=1997
DGENRE=Jazz
TTITLE0=Moonlight in Vermont
TTITLE1=Harlem Nocturne
TTITLE2=Night Train
TTITLE3=Teach me Tonight
TTITLE4=Some nchanted Evening
TTITLE5=Blue Moon
TTITLE6=Stars Fell on Alabama
TTITLE7=The Moon is Blue
TTITLE8=That Old Black Magic
TTITLE9=Three O'Clock in the Morning
EXTD=YEAR: 1997
EXTT0=
EXTT1=
EXTT2=
EXTT3=
EXTT4=
EXTT5=
EXTT6=
EXTT7=
EXTT8=
EXTT9=
PLAYORDER=
